<mxfile host="app.diagrams.net" agent="Mozilla/5.0 (Windows NT 10.0; Win64; x64) AppleWebKit/537.36 (KHTML, like Gecko) Chrome/131.0.0.0 Safari/537.36" version="25.0.3">
  <diagram name="Page-1" id="SU60sq1JpARpPboAShl4">
    <mxGraphModel dx="1434" dy="746" grid="1" gridSize="10" guides="1" tooltips="1" connect="1" arrows="1" fold="1" page="1" pageScale="1" pageWidth="1100" pageHeight="850" math="0" shadow="0">
      <root>
        <mxCell id="0" />
        <mxCell id="1" parent="0" />
        <mxCell id="HHuTXF0BT0n3mswBOlXm-3" value="" style="endArrow=classic;html=1;rounded=0;strokeWidth=2;entryX=0;entryY=0.5;entryDx=0;entryDy=0;fontStyle=0;exitX=1;exitY=0.5;exitDx=0;exitDy=0;fontFamily=Times New Roman;fontSize=15;" parent="1" source="MPG2LtDlFFUvsX0TWPEw-2" target="SRh0s-oIHB4yDXquQM8V-11" edge="1">
          <mxGeometry width="50" height="50" relative="1" as="geometry">
            <mxPoint x="300" y="420" as="sourcePoint" />
            <mxPoint x="480" y="330" as="targetPoint" />
            <Array as="points">
              <mxPoint x="360" y="420" />
              <mxPoint x="360" y="310" />
            </Array>
          </mxGeometry>
        </mxCell>
        <mxCell id="HHuTXF0BT0n3mswBOlXm-4" value="" style="endArrow=classic;html=1;rounded=0;strokeWidth=2;fontStyle=0;fontFamily=Times New Roman;fontSize=15;" parent="1" target="pmOOVxwG420c-32HkS5u-2" edge="1">
          <mxGeometry width="50" height="50" relative="1" as="geometry">
            <mxPoint x="360" y="420" as="sourcePoint" />
            <mxPoint x="260" y="460" as="targetPoint" />
            <Array as="points">
              <mxPoint x="360" y="490" />
            </Array>
          </mxGeometry>
        </mxCell>
        <mxCell id="HHuTXF0BT0n3mswBOlXm-9" value="" style="endArrow=none;html=1;rounded=0;strokeWidth=2;fontStyle=0;exitX=1;exitY=0.5;exitDx=0;exitDy=0;fontFamily=Times New Roman;fontSize=15;" parent="1" source="pmOOVxwG420c-32HkS5u-2" edge="1">
          <mxGeometry width="50" height="50" relative="1" as="geometry">
            <mxPoint x="560" y="477" as="sourcePoint" />
            <mxPoint x="650" y="400" as="targetPoint" />
            <Array as="points">
              <mxPoint x="650" y="490" />
            </Array>
          </mxGeometry>
        </mxCell>
        <mxCell id="SRh0s-oIHB4yDXquQM8V-11" value="&lt;span style=&quot;border-color: var(--border-color); font-size: 15px;&quot;&gt;&lt;b style=&quot;font-size: 15px;&quot;&gt;Step 3&lt;/b&gt;&lt;/span&gt;&lt;font style=&quot;font-size: 15px;&quot;&gt;&lt;span style=&quot;font-size: 15px;&quot;&gt;&lt;br style=&quot;font-size: 15px;&quot;&gt;&lt;/span&gt;&lt;/font&gt;&lt;div style=&quot;font-size: 15px;&quot;&gt;&lt;span style=&quot;border-color: var(--border-color); font-size: 15px;&quot;&gt;Ground Truth&lt;/span&gt;&lt;/div&gt;&lt;div style=&quot;font-size: 15px;&quot;&gt;&lt;span style=&quot;border-color: var(--border-color); font-size: 15px;&quot;&gt;Definition&lt;/span&gt;&lt;/div&gt;" style="rounded=0;whiteSpace=wrap;html=1;strokeWidth=2;container=0;fontStyle=0;fontFamily=Times New Roman;fontSize=15;" parent="1" vertex="1">
          <mxGeometry x="415.88" y="280" width="164.12" height="60" as="geometry" />
        </mxCell>
        <mxCell id="MPG2LtDlFFUvsX0TWPEw-3" value="" style="endArrow=classic;html=1;rounded=0;strokeWidth=2;entryX=0;entryY=0.5;entryDx=0;entryDy=0;fontStyle=0;fontFamily=Times New Roman;fontSize=15;" parent="1" target="MPG2LtDlFFUvsX0TWPEw-2" edge="1">
          <mxGeometry width="50" height="50" relative="1" as="geometry">
            <mxPoint x="100" y="420" as="sourcePoint" />
            <mxPoint x="190" y="471.02" as="targetPoint" />
            <Array as="points" />
          </mxGeometry>
        </mxCell>
        <mxCell id="MPG2LtDlFFUvsX0TWPEw-2" value="&lt;font style=&quot;font-size: 16px;&quot;&gt;&lt;b style=&quot;&quot;&gt;Step 1&lt;/b&gt;&lt;/font&gt;&lt;div style=&quot;font-size: 16px;&quot;&gt;&lt;font style=&quot;font-size: 16px;&quot;&gt;Pre-processing&lt;/font&gt;&lt;/div&gt;" style="rounded=0;whiteSpace=wrap;html=1;strokeWidth=2;container=0;fontStyle=0;fontFamily=Times New Roman;fontSize=15;" parent="1" vertex="1">
          <mxGeometry x="140" y="390" width="110" height="60" as="geometry" />
        </mxCell>
        <mxCell id="MPG2LtDlFFUvsX0TWPEw-8" value="" style="endArrow=classic;html=1;rounded=0;entryX=0.019;entryY=0.806;entryDx=0;entryDy=0;entryPerimeter=0;strokeWidth=2;fontFamily=Times New Roman;fontSize=15;" parent="1" edge="1">
          <mxGeometry width="50" height="50" relative="1" as="geometry">
            <mxPoint x="310" y="540" as="sourcePoint" />
            <mxPoint x="419.99999999999994" y="540.08" as="targetPoint" />
          </mxGeometry>
        </mxCell>
        <mxCell id="MPG2LtDlFFUvsX0TWPEw-9" value="&lt;b style=&quot;font-size: 15px;&quot;&gt;&lt;font style=&quot;font-size: 15px;&quot;&gt;Step 4&lt;/font&gt;&lt;/b&gt;&lt;div style=&quot;font-size: 15px;&quot;&gt;&lt;div style=&quot;font-size: 15px;&quot;&gt;&lt;font style=&quot;font-size: 15px;&quot;&gt;Deliberation&lt;/font&gt;&lt;/div&gt;&lt;/div&gt;" style="rounded=0;whiteSpace=wrap;html=1;verticalAlign=top;fontFamily=Times New Roman;dashed=1;strokeWidth=2;fontSize=15;" parent="1" vertex="1">
          <mxGeometry x="705" y="280" width="160" height="220" as="geometry" />
        </mxCell>
        <mxCell id="MPG2LtDlFFUvsX0TWPEw-13" value="" style="edgeStyle=orthogonalEdgeStyle;rounded=0;orthogonalLoop=1;jettySize=auto;html=1;strokeWidth=2;fontFamily=Times New Roman;endArrow=none;endFill=0;" parent="1" source="HHuTXF0BT0n3mswBOlXm-6" edge="1">
          <mxGeometry relative="1" as="geometry">
            <Array as="points">
              <mxPoint x="890" y="360" />
              <mxPoint x="890" y="400" />
            </Array>
            <mxPoint x="930" y="400" as="targetPoint" />
          </mxGeometry>
        </mxCell>
        <mxCell id="HHuTXF0BT0n3mswBOlXm-6" value="&lt;font style=&quot;font-size: 15px;&quot;&gt;&lt;span style=&quot;font-size: 15px;&quot;&gt;Measure Performance&lt;/span&gt;&lt;/font&gt;" style="rounded=0;whiteSpace=wrap;html=1;strokeWidth=2;container=0;fontStyle=0;fontFamily=Times New Roman;fontSize=15;" parent="1" vertex="1">
          <mxGeometry x="725" y="330" width="120" height="60" as="geometry" />
        </mxCell>
        <mxCell id="MPG2LtDlFFUvsX0TWPEw-10" value="Synthesis of Findings" style="rounded=0;whiteSpace=wrap;html=1;strokeWidth=2;container=0;fontStyle=0;fontFamily=Times New Roman;fontSize=15;" parent="1" vertex="1">
          <mxGeometry x="725" y="420" width="120" height="60" as="geometry" />
        </mxCell>
        <mxCell id="MPG2LtDlFFUvsX0TWPEw-11" value="" style="endArrow=classic;html=1;rounded=0;entryX=0;entryY=0.5;entryDx=0;entryDy=0;strokeWidth=2;fontFamily=Times New Roman;" parent="1" target="MPG2LtDlFFUvsX0TWPEw-10" edge="1">
          <mxGeometry width="50" height="50" relative="1" as="geometry">
            <mxPoint x="670" y="400" as="sourcePoint" />
            <mxPoint x="690" y="400" as="targetPoint" />
            <Array as="points">
              <mxPoint x="670" y="450" />
            </Array>
          </mxGeometry>
        </mxCell>
        <mxCell id="MPG2LtDlFFUvsX0TWPEw-12" value="" style="endArrow=classic;html=1;rounded=0;strokeWidth=2;fontFamily=Times New Roman;exitX=1;exitY=0.5;exitDx=0;exitDy=0;" parent="1" source="MPG2LtDlFFUvsX0TWPEw-10" edge="1">
          <mxGeometry width="50" height="50" relative="1" as="geometry">
            <mxPoint x="810" y="445" as="sourcePoint" />
            <mxPoint x="930" y="400" as="targetPoint" />
            <Array as="points">
              <mxPoint x="890" y="450" />
              <mxPoint x="890" y="400" />
            </Array>
          </mxGeometry>
        </mxCell>
        <mxCell id="MPG2LtDlFFUvsX0TWPEw-14" value="API&lt;div style=&quot;font-size: 14px;&quot;&gt;Endpoints and&amp;nbsp;&lt;/div&gt;&lt;div style=&quot;font-size: 14px;&quot;&gt;Documentation&lt;/div&gt;" style="text;html=1;align=center;verticalAlign=middle;resizable=0;points=[];autosize=1;strokeColor=none;fillColor=none;fontFamily=Times New Roman;fontSize=14;" parent="1" vertex="1">
          <mxGeometry y="385" width="110" height="60" as="geometry" />
        </mxCell>
        <mxCell id="MPG2LtDlFFUvsX0TWPEw-16" value="Processed API&lt;div&gt;Endpoints and&amp;nbsp;&lt;/div&gt;&lt;div&gt;Documentations&lt;/div&gt;" style="text;html=1;align=center;verticalAlign=middle;resizable=0;points=[];autosize=1;strokeColor=none;fillColor=none;rotation=0;fontFamily=Times New Roman;fontSize=14;" parent="1" vertex="1">
          <mxGeometry x="245" y="365" width="120" height="60" as="geometry" />
        </mxCell>
        <mxCell id="MPG2LtDlFFUvsX0TWPEw-17" value="Ground&amp;nbsp;&lt;div&gt;Truths&lt;/div&gt;" style="text;html=1;align=center;verticalAlign=middle;resizable=0;points=[];autosize=1;strokeColor=none;fillColor=none;fontFamily=Times New Roman;fontSize=14;" parent="1" vertex="1">
          <mxGeometry x="580" y="260" width="70" height="50" as="geometry" />
        </mxCell>
        <mxCell id="MPG2LtDlFFUvsX0TWPEw-18" value="Detection&lt;div&gt;Results&lt;/div&gt;" style="text;html=1;align=center;verticalAlign=middle;resizable=0;points=[];autosize=1;strokeColor=none;fillColor=none;fontFamily=Times New Roman;fontSize=14;" parent="1" vertex="1">
          <mxGeometry x="575" y="490" width="80" height="50" as="geometry" />
        </mxCell>
        <mxCell id="HHuTXF0BT0n3mswBOlXm-7" value="" style="endArrow=classic;html=1;rounded=0;entryX=0;entryY=0.5;entryDx=0;entryDy=0;exitX=1;exitY=0.5;exitDx=0;exitDy=0;strokeWidth=2;fontStyle=0;fontFamily=Times New Roman;fontSize=15;" parent="1" source="SRh0s-oIHB4yDXquQM8V-11" target="HHuTXF0BT0n3mswBOlXm-6" edge="1">
          <mxGeometry width="50" height="50" relative="1" as="geometry">
            <mxPoint x="635" y="330" as="sourcePoint" />
            <mxPoint x="530" y="350" as="targetPoint" />
            <Array as="points">
              <mxPoint x="650" y="310" />
              <mxPoint x="650" y="400" />
              <mxPoint x="670" y="400" />
              <mxPoint x="670" y="360" />
            </Array>
          </mxGeometry>
        </mxCell>
        <mxCell id="HHuTXF0BT0n3mswBOlXm-41" value="Detection&lt;div style=&quot;font-size: 14px;&quot;&gt;Performance&lt;/div&gt;" style="text;html=1;align=center;verticalAlign=middle;resizable=0;points=[];autosize=1;strokeColor=none;fillColor=none;container=0;strokeWidth=2;fontStyle=0;fontFamily=Times New Roman;fontSize=14;rotation=0;" parent="1" vertex="1">
          <mxGeometry x="920" y="375" width="100" height="50" as="geometry" />
        </mxCell>
        <mxCell id="T8yBe9R63vZpuGUoECYJ-3" value="Heuristics of 14 Linguistic&amp;nbsp;&lt;div&gt;&lt;span style=&quot;background-color: initial;&quot;&gt;Patterns and Antipatterns&lt;/span&gt;&lt;/div&gt;" style="text;html=1;align=center;verticalAlign=middle;resizable=0;points=[];autosize=1;strokeColor=none;fillColor=none;fontFamily=Times New Roman;fontSize=14;" vertex="1" parent="1">
          <mxGeometry x="140" y="520" width="180" height="50" as="geometry" />
        </mxCell>
        <mxCell id="T8yBe9R63vZpuGUoECYJ-4" value="" style="group" vertex="1" connectable="0" parent="1">
          <mxGeometry x="420" y="385" width="160" height="205" as="geometry" />
        </mxCell>
        <mxCell id="pmOOVxwG420c-32HkS5u-2" value="&lt;font style=&quot;font-size: 15px;&quot;&gt;&lt;span style=&quot;font-size: 15px;&quot;&gt;&lt;br style=&quot;font-size: 15px;&quot;&gt;&lt;/span&gt;&lt;/font&gt;" style="rounded=0;whiteSpace=wrap;html=1;strokeWidth=2;container=0;fontStyle=0;fontFamily=Times New Roman;fontSize=15;" parent="T8yBe9R63vZpuGUoECYJ-4" vertex="1">
          <mxGeometry y="5" width="160" height="200" as="geometry" />
        </mxCell>
        <mxCell id="pmOOVxwG420c-32HkS5u-4" value="&lt;div style=&quot;text-align: center; font-size: 15px;&quot;&gt;&lt;b style=&quot;font-size: 15px;&quot;&gt;Step 2&lt;/b&gt;&lt;/div&gt;&lt;div style=&quot;text-align: center; font-size: 15px;&quot;&gt;&lt;span style=&quot;border-color: var(--border-color); color: rgb(0, 0, 0); font-style: normal; font-variant-ligatures: normal; font-variant-caps: normal; letter-spacing: normal; orphans: 2; text-indent: 0px; text-transform: none; widows: 2; word-spacing: 0px; -webkit-text-stroke-width: 0px; background-color: rgb(251, 251, 251); text-decoration-thickness: initial; text-decoration-style: initial; text-decoration-color: initial; font-size: 15px;&quot;&gt;Antipattern Detection&lt;br style=&quot;font-size: 15px;&quot;&gt;&lt;/span&gt;&lt;/div&gt;" style="text;whiteSpace=wrap;html=1;container=0;strokeWidth=2;fontStyle=0;fontFamily=Times New Roman;fontSize=15;" parent="T8yBe9R63vZpuGUoECYJ-4" vertex="1">
          <mxGeometry x="7" width="133" height="40" as="geometry" />
        </mxCell>
        <mxCell id="MPG2LtDlFFUvsX0TWPEw-4" value="Analysis" style="rounded=0;whiteSpace=wrap;html=1;strokeWidth=2;verticalAlign=top;fontFamily=Times New Roman;fontSize=15;" parent="T8yBe9R63vZpuGUoECYJ-4" vertex="1">
          <mxGeometry x="20" y="50" width="120" height="145" as="geometry" />
        </mxCell>
        <mxCell id="ErhxkkcFe3KiioCIOO-B-2" value="&lt;div style=&quot;font-size: 15px;&quot;&gt;&lt;font style=&quot;font-size: 15px;&quot;&gt;&lt;span style=&quot;font-size: 15px;&quot;&gt;Semantic Analysis&lt;/span&gt;&lt;/font&gt;&lt;/div&gt;" style="rounded=0;whiteSpace=wrap;html=1;strokeWidth=2;container=0;fontStyle=0;fontFamily=Times New Roman;fontSize=15;" parent="T8yBe9R63vZpuGUoECYJ-4" vertex="1">
          <mxGeometry x="36.629999999999995" y="77.5" width="91.75" height="47.5" as="geometry" />
        </mxCell>
        <mxCell id="MPG2LtDlFFUvsX0TWPEw-6" value="&lt;div style=&quot;font-size: 15px;&quot;&gt;&lt;font style=&quot;font-size: 15px;&quot;&gt;&lt;span style=&quot;font-size: 15px;&quot;&gt;Syntactic Analysis&lt;/span&gt;&lt;/font&gt;&lt;/div&gt;" style="rounded=0;whiteSpace=wrap;html=1;strokeWidth=2;container=0;fontStyle=0;fontFamily=Times New Roman;fontSize=15;" parent="T8yBe9R63vZpuGUoECYJ-4" vertex="1">
          <mxGeometry x="36.629999999999995" y="135" width="91.75" height="50" as="geometry" />
        </mxCell>
      </root>
    </mxGraphModel>
  </diagram>
</mxfile>
